<svg id="Layer_5" enable-background="new 0 0 64 64" height="512" viewBox="0 0 64 64" width="512" xmlns="http://www.w3.org/2000/svg"><g><g><g><path d="m52 54h-1-46-1c-.55 0-1.05.22-1.41.59-.37.36-.59.86-.59 1.41 0 3.31 2.69 6 6 6h40c1.66 0 3.16-.67 4.24-1.76 1.09-1.08 1.76-2.58 1.76-4.24 0-1.1-.9-2-2-2z" fill="#969faa"/></g><g><path d="m20 54h16c0 2.21-1.79 4-4 4h-8c-2.21 0-4-1.79-4-4z" fill="#fcd770"/></g><g><path d="m34.59 20h-25.59c-2.21 0-4 1.79-4 4v30h15 16 15v-34z" fill="#69d6f4"/></g><g><path d="m47 32v17c0 .55-.45 1-1 1h-36c-.55 0-1-.45-1-1v-17z" fill="#e6e9ed"/></g><g><path d="m9 32v-7c0-.55.45-1 1-1h26.52c2.34 3.37 6.14 5.66 10.48 5.96v2.04z" fill="#ff826e"/></g><g><path d="m51 29.68c-.97.21-1.97.32-3 .32-.34 0-.67-.01-1-.04-4.34-.3-8.14-2.59-10.48-5.96-.85-1.21-1.51-2.56-1.93-4h-.01c-.38-1.27-.58-2.61-.58-4 0-7.73 6.27-14 14-14s14 6.27 14 14c0 6.7-4.71 12.3-11 13.68z" fill="#ffeaa7"/></g></g><g><path d="m43 18v-1h-2v1c0 .552-.449 1-1 1s-1-.448-1-1v-4c0-.552.449-1 1-1s1 .448 1 1v1h2v-1c0-1.654-1.346-3-3-3s-3 1.346-3 3v4c0 1.654 1.346 3 3 3s3-1.346 3-3z"/><path d="m48 19c-.551 0-1-.448-1-1h-2c0 1.654 1.346 3 3 3s3-1.346 3-3-1.346-3-3-3c-.551 0-1-.448-1-1s.449-1 1-1 1 .448 1 1h2c0-1.654-1.346-3-3-3s-3 1.346-3 3 1.346 3 3 3c.551 0 1 .448 1 1s-.449 1-1 1z"/><path d="m56 19c-.551 0-1-.448-1-1h-2c0 1.654 1.346 3 3 3s3-1.346 3-3-1.346-3-3-3c-.551 0-1-.448-1-1s.449-1 1-1 1 .448 1 1h2c0-1.654-1.346-3-3-3s-3 1.346-3 3 1.346 3 3 3c.551 0 1 .448 1 1s-.449 1-1 1z"/><path d="m42 40c0-1.654-1.346-3-3-3h-1v2h1c.551 0 1 .448 1 1 0 .771.301 1.468.78 2-.48.532-.78 1.229-.78 2 0 .552-.449 1-1 1h-1v2h1c1.654 0 3-1.346 3-3 0-.552.449-1 1-1h1v-2h-1c-.551 0-1-.448-1-1z"/><path d="m32 40c0 .552-.449 1-1 1h-1v2h1c.551 0 1 .448 1 1 0 1.654 1.346 3 3 3h1v-2h-1c-.551 0-1-.448-1-1 0-.771-.301-1.468-.78-2 .48-.532.78-1.229.78-2 0-.552.449-1 1-1h1v-2h-1c-1.654 0-3 1.346-3 3z"/><path d="m16 27h2v2h-2z"/><path d="m20 27h2v2h-2z"/><path d="m12 27h2v2h-2z"/><path d="m16 39h4v-2h-4v-2h-2v12h2v-4h6v-2h-6z"/><path d="m63 16c0-8.271-6.729-15-15-15s-15 6.729-15 15c0 1.027.105 2.03.302 3h-24.302c-2.757 0-5 2.243-5 5v29c-1.654 0-3 1.346-3 3 0 3.859 3.14 7 7 7h40c3.86 0 7-3.141 7-7 0-1.654-1.346-3-3-3v-22.558c6.332-1.757 11-7.557 11-14.442zm-15-13c7.168 0 13 5.832 13 13s-5.832 13-13 13-13-5.832-13-13 5.832-13 13-13zm-38 30h36v16h-36zm36-2h-36v-6h26.028c2.359 3.13 5.906 5.305 9.972 5.851zm7 25c0 2.757-2.243 5-5 5h-40c-2.757 0-5-2.243-5-5 0-.552.449-1 1-1h15.101c.465 2.279 2.484 4 4.899 4h8c2.414 0 4.434-1.721 4.899-4h15.101c.551 0 1 .448 1 1zm-31.816-1h13.631c-.414 1.161-1.514 2-2.816 2h-8c-1.301 0-2.401-.839-2.815-2zm28.816-2h-44v-29c0-1.654 1.346-3 3-3h24.875c.245.69.529 1.361.868 2h-24.743c-1.103 0-2 .897-2 2v24c0 1.103.897 2 2 2h36c1.103 0 2-.897 2-2v-18c.68 0 1.344-.061 2-.149z"/></g></g></svg>